# xmcd
#
# Track frame offsets: 
#        150
#        13007
#        31388
#        49145
#        60976
#        73901
#        87037
#        100418
#        109116
#        123123
#        141360
#        159517
#
# Disc length: 2283 seconds
#
# Revision: 0
# Processed by: cddbd v1.5.1PL2 Copyright (c) Steve Scherf et al.
# Submitted via: ExactAudioCopy v0.95b3
#
DISCID=9d08e90c
DTITLE=Arkey Blue - True Blue
DYEAR=1900
DGENRE=Country
TTITLE0=From Across The Valley
TTITLE1=There Was No Murder Committed
TTITLE2=Tivydale Road
TTITLE3=She´s On Her Way Out 
TTITLE4=Caesares´s Song
TTITLE5=Road To Your Heart
TTITLE6=Annalee
TTITLE7=Wine , Wine , Whine
TTITLE8=A Hit´s Comin´ On
TTITLE9=It´s  Time That You Are Replaced
TTITLE10=Let Me Sing
TTITLE11=Bandera Saturday Night
EXTD=
EXTT0=
EXTT1=
EXTT2=
EXTT3=
EXTT4=
EXTT5=
EXTT6=
EXTT7=
EXTT8=
EXTT9=
EXTT10=
EXTT11=
PLAYORDER=
